<svg width="96" height="96" viewBox="0 0 96 96" fill="none" xmlns="http://www.w3.org/2000/svg">
<rect x="0.5" y="0.5" width="95" height="95" rx="7.5" fill="white"/>
<rect x="0.5" y="0.5" width="95" height="95" rx="7.5" stroke="#F1F5F9"/>
<path d="M14 33.9999C14 32.8954 14.8954 31.9999 16 31.9999H19C20.1046 31.9999 21 32.8954 21 33.9999V85.9999H14V33.9999Z" fill="#4F46E5"/>
<path d="M24 12C24 10.8954 24.8954 10 26 10H29C30.1046 10 31 10.8954 31 12V86H24V12Z" fill="#C7D2FE"/>
<path d="M49 23.0001C49 21.8955 49.8954 21.0001 51 21.0001H54C55.1046 21.0001 56 21.8955 56 23.0001V86.0001H49V23.0001Z" fill="#C7D2FE"/>
<path d="M39 51C39 49.8954 39.8954 49 41 49H44C45.1046 49 46 49.8954 46 51V86H39V51Z" fill="#4F46E5"/>
<path d="M74 51C74 49.8954 74.8954 49 76 49H79C80.1046 49 81 49.8954 81 51V86H74V51Z" fill="#C7D2FE"/>
<path d="M64 63.0001C64 61.8955 64.8954 61.0001 66 61.0001H69C70.1046 61.0001 71 61.8955 71 63.0001V86.0001H64V63.0001Z" fill="#4F46E5"/>
</svg>
