<svg width="96" height="96" viewBox="0 0 96 96" fill="none" xmlns="http://www.w3.org/2000/svg">
<rect x="0.5" y="0.5" width="95" height="95" rx="7.5" fill="white"/>
<rect x="0.5" y="0.5" width="95" height="95" rx="7.5" stroke="#F1F5F9"/>
<path d="M30.5 43H65.5V64.25C65.5 66.3594 63.7812 68 61.75 68H34.25C32.1406 68 30.5 66.3594 30.5 64.25V43ZM35.5 50.5C35.5 51.9062 36.5938 53 38 53C39.3281 53 40.5 51.9062 40.5 50.5C40.5 49.1719 39.3281 48 38 48C36.5938 48 35.5 49.1719 35.5 50.5ZM58 58C56.5938 58 55.5 59.1719 55.5 60.5C55.5 61.9062 56.5938 63 58 63C59.3281 63 60.5 61.9062 60.5 60.5C60.5 59.1719 59.3281 58 58 58ZM45.5 50.5C45.5 51.5938 46.2812 52.375 47.375 52.375H58.625C59.6406 52.375 60.5 51.5938 60.5 50.5C60.5 49.4844 59.6406 48.625 58.625 48.625H47.375C46.2812 48.625 45.5 49.4844 45.5 50.5ZM48.625 58.625H37.375C36.2812 58.625 35.5 59.4844 35.5 60.5C35.5 61.5938 36.2812 62.375 37.375 62.375H48.625C49.6406 62.375 50.5 61.5938 50.5 60.5C50.5 59.4844 49.6406 58.625 48.625 58.625Z" fill="#4F46E5"/>
<path d="M38 30.5C38 29.1719 39.0938 28 40.5 28C41.8281 28 43 29.1719 43 30.5V33H53V30.5C53 29.1719 54.0938 28 55.5 28C56.8281 28 58 29.1719 58 30.5V33H61.75C63.7812 33 65.5 34.7188 65.5 36.75V43H30.5V36.75C30.5 34.7188 32.1406 33 34.25 33H38V30.5ZM40.5 50.5C40.5 51.9062 39.3281 53 38 53C36.5938 53 35.5 51.9062 35.5 50.5C35.5 49.1719 36.5938 48 38 48C39.3281 48 40.5 49.1719 40.5 50.5ZM58 63C56.5938 63 55.5 61.9062 55.5 60.5C55.5 59.1719 56.5938 58 58 58C59.3281 58 60.5 59.1719 60.5 60.5C60.5 61.9062 59.3281 63 58 63ZM45.5 50.5C45.5 49.4844 46.2812 48.625 47.375 48.625H58.625C59.6406 48.625 60.5 49.4844 60.5 50.5C60.5 51.5938 59.6406 52.375 58.625 52.375H47.375C46.2812 52.375 45.5 51.5938 45.5 50.5ZM48.625 58.625C49.6406 58.625 50.5 59.4844 50.5 60.5C50.5 61.5938 49.6406 62.375 48.625 62.375H37.375C36.2812 62.375 35.5 61.5938 35.5 60.5C35.5 59.4844 36.2812 58.625 37.375 58.625H48.625Z" fill="#C7D2FE"/>
</svg>
