<svg width="96" height="96" viewBox="0 0 96 96" fill="none" xmlns="http://www.w3.org/2000/svg">
<rect x="0.5" y="0.5" width="95" height="95" rx="7.5" fill="white"/>
<rect x="0.5" y="0.5" width="95" height="95" rx="7.5" stroke="#F1F5F9"/>
<path d="M43 44.4844V44.0938C43 43.3906 43.2344 42.7656 43.7031 42.2188L45.1094 40.8906C45.3438 40.6562 45.4219 40.3438 45.4219 40.1094C45.4219 39.5625 45.7344 39.1719 46.2031 39.0156L48.3125 38.3125C48.8594 38.1562 49.4062 37.7656 49.875 37.375L51.4375 35.8125C51.5938 35.6562 51.6719 35.4219 51.6719 35.1875C51.6719 34.6406 51.2812 34.25 50.8125 34.25H50.7344C50.5781 34.25 50.3438 34.3281 50.1875 34.4062L46.9844 36.5938C46.8281 36.75 46.5938 36.75 46.4375 36.75C45.8906 36.75 45.4219 36.3594 45.4219 35.8125V35.1875C45.4219 34.6406 45.7344 34.0938 46.2031 33.7812L53.625 28.8594C61.9062 31.2812 68 38.9375 68 48C68 49.7969 67.7656 51.4375 67.2969 53H62.8438C61.75 53 60.6562 52.6094 59.875 51.75L58.3906 50.3438C58.1562 50.0312 58 49.7188 58 49.25C58 48.8594 58.1562 48.4688 58.3906 48.2344L59.0156 47.6094C59.1719 47.4531 59.25 47.2969 59.25 47.0625C59.25 46.9062 59.1719 46.6719 59.0156 46.5938L58.4688 46.0469C58.1562 45.7344 57.6875 45.5781 57.2188 45.5781H56.3594C55.8906 45.5781 55.5 45.1094 55.5 44.6406C55.5 44.4062 55.5781 44.1719 55.7344 44.0156L56.125 43.625C56.5156 43.2344 57.0625 43 57.6094 43H59.25C59.875 43 60.5 42.4531 60.5 41.75C60.5 41.125 59.875 40.5 59.25 40.5H56.9062C56.125 40.5 55.5 41.2031 55.5 41.9844C55.5 42.6094 55.0312 43.1562 54.4844 43.3906L52.8438 43.9375C52.2188 44.0938 51.9844 44.7969 52.2188 45.3438L52.2969 45.5C52.6094 46.125 52.2188 46.75 51.5156 46.75C51.2812 46.75 50.9688 46.6719 50.8125 46.4375L49.5625 44.7188C49.3281 44.4844 49.0156 44.3281 48.625 44.3281C48.2344 44.3281 47.8438 44.5625 47.6875 44.875L47.375 45.5781C46.9844 46.2812 46.125 46.8281 45.2656 46.8281C44.0156 46.8281 43 45.7344 43 44.4844ZM66.5156 55.5C63.7031 62.5312 57.0625 67.5312 49.25 68V65.3438C49.25 63.3906 47.6094 61.75 45.6562 61.75C44.7188 61.75 43.8594 61.4375 43.1562 60.7344L41.9062 59.4844C40.9688 58.5469 40.5 57.2969 40.5 55.9688V55.7344C40.5 54.0156 41.2812 52.4531 42.6875 51.5156L44.7969 50.1094C45.6562 49.5625 46.5938 49.25 47.6094 49.25H49.25C50.4219 49.25 51.5938 49.7188 52.5312 50.5L54.5625 52.2969C55.1875 52.7656 55.8906 53 56.6719 53C57.5312 53 58.3125 53.3906 58.9375 53.9375L59.25 54.25C60.0312 55.1094 61.125 55.5 62.2188 55.5H66.5156ZM42.6094 35.8906C43.0781 36.3594 43.0781 37.2188 42.6094 37.6875L40.1094 40.1875C39.6406 40.6562 38.7812 40.6562 38.3125 40.1875C37.8438 39.7188 37.8438 38.8594 38.3125 38.3906L40.8125 35.8906C41.2812 35.4219 42.1406 35.4219 42.6094 35.8906Z" fill="#4F46E5"/>
<path d="M43 44.4844C43 45.7344 44.0156 46.8281 45.2656 46.8281C46.125 46.8281 46.9844 46.2812 47.375 45.5781L47.6875 44.875C47.8438 44.5625 48.2344 44.3281 48.625 44.3281C49.0156 44.3281 49.3281 44.4844 49.5625 44.7188L50.8125 46.4375C50.9688 46.6719 51.2812 46.75 51.5156 46.75C52.2188 46.75 52.6094 46.125 52.2969 45.5L52.2188 45.3438C51.9844 44.7969 52.2188 44.0938 52.8438 43.9375L54.4844 43.3906C55.0312 43.1562 55.5 42.6094 55.5 41.9844C55.5 41.2031 56.125 40.5 56.9062 40.5H59.25C59.875 40.5 60.5 41.125 60.5 41.75C60.5 42.4531 59.875 43 59.25 43H57.6094C57.0625 43 56.5156 43.2344 56.125 43.625L55.7344 44.0156C55.5781 44.1719 55.5 44.4062 55.5 44.6406C55.5 45.1094 55.8906 45.5781 56.3594 45.5781H57.2188C57.6875 45.5781 58.1562 45.7344 58.4688 46.0469L59.0156 46.5938C59.1719 46.6719 59.25 46.9062 59.25 47.0625C59.25 47.2969 59.1719 47.4531 59.0156 47.6094L58.3906 48.2344C58.1562 48.4688 58 48.8594 58 49.25C58 49.7188 58.1562 50.0312 58.3906 50.3438L59.875 51.75C60.6562 52.6094 61.75 53 62.8438 53H67.375C67.1406 53.8594 66.8281 54.7188 66.5156 55.5H62.2188C61.125 55.5 60.0312 55.1094 59.25 54.25L58.9375 53.9375C58.3125 53.3906 57.5312 53 56.6719 53C55.8906 53 55.1875 52.7656 54.5625 52.2969L52.5312 50.5C51.5938 49.7188 50.4219 49.25 49.25 49.25H47.6094C46.5938 49.25 45.6562 49.5625 44.7969 50.1094L42.6875 51.5156C41.2812 52.4531 40.5 54.0156 40.5 55.7344V55.9688C40.5 57.2969 40.9688 58.5469 41.9062 59.4844L43.1562 60.7344C43.8594 61.4375 44.7188 61.75 45.6562 61.75C47.6094 61.75 49.25 63.3906 49.25 65.3438V68C48.7812 68 48.3906 68 48 68C36.9062 68 28 59.0938 28 48C28 36.9844 36.9062 28 48 28C49.9531 28 51.8281 28.3125 53.625 28.8594L46.2031 33.7812C45.7344 34.0938 45.4219 34.6406 45.4219 35.1875V35.8125C45.4219 36.3594 45.8906 36.75 46.4375 36.75C46.5938 36.75 46.8281 36.75 46.9844 36.5938L50.1875 34.4062C50.3438 34.3281 50.5781 34.25 50.7344 34.25H50.8125C51.2812 34.25 51.6719 34.6406 51.6719 35.1875C51.6719 35.4219 51.5938 35.6562 51.4375 35.8125L49.875 37.375C49.4062 37.7656 48.8594 38.1562 48.3125 38.3125L46.2031 39.0156C45.7344 39.1719 45.4219 39.5625 45.4219 40.1094C45.4219 40.3438 45.3438 40.6562 45.1094 40.8906L43.7031 42.2188C43.2344 42.7656 43 43.3906 43 44.0938V44.4844ZM42.6094 37.6875C43.0781 37.2188 43.0781 36.3594 42.6094 35.8906C42.1406 35.4219 41.2812 35.4219 40.8125 35.8906L38.3125 38.3906C37.8438 38.8594 37.8438 39.7188 38.3125 40.1875C38.7812 40.6562 39.6406 40.6562 40.1094 40.1875L42.6094 37.6875Z" fill="#C7D2FE"/>
</svg>
