<svg width="96" height="96" viewBox="0 0 96 96" fill="none" xmlns="http://www.w3.org/2000/svg">
<rect x="0.5" y="0.5" width="95" height="95" rx="7.5" fill="white"/>
<rect x="0.5" y="0.5" width="95" height="95" rx="7.5" stroke="#F1F5F9"/>
<path d="M55.9688 43C57.2969 45.0312 58.7812 46.75 59.4062 47.5312C59.7188 47.8438 60.0312 48 60.5 48H53C51.5938 48 50.5 49.1719 50.5 50.5C50.5 51.9062 51.5938 53 53 53H60.5C64.6406 53 68 56.3594 68 60.5C68 64.6406 64.6406 68 60.5 68H35.5C35.8906 68 36.2031 67.8438 36.5156 67.5312C37.2188 66.75 38.625 65.0312 39.9531 63H60.5C61.8281 63 63 61.9062 63 60.5C63 59.1719 61.8281 58 60.5 58H53C48.8594 58 45.5 54.6406 45.5 50.5C45.5 46.3594 48.8594 43 53 43H55.9688Z" fill="#C7D2FE"/>
<path d="M53 35.5C53 31.3594 56.3594 28 60.5 28C64.6406 28 68 31.3594 68 35.5C68 39.7969 63 45.8906 61.5156 47.5312C61.2031 47.8438 60.8906 48 60.5 48C60.0312 48 59.7188 47.8438 59.4062 47.5312C57.9219 45.8906 53 39.7969 53 35.5ZM58 35.5C58 36.9062 59.0938 38 60.5 38C61.8281 38 63 36.9062 63 35.5C63 34.1719 61.8281 33 60.5 33C59.0938 33 58 34.1719 58 35.5ZM28 55.5C28 51.3594 31.3594 48 35.5 48C39.6406 48 43 51.3594 43 55.5C43 59.7969 38 65.8906 36.5156 67.5312C36.2031 67.8438 35.8906 68 35.5 68C35.0312 68 34.7188 67.8438 34.4062 67.5312C32.9219 65.8906 28 59.7969 28 55.5ZM33 55.5C33 56.9062 34.0938 58 35.5 58C36.8281 58 38 56.9062 38 55.5C38 54.1719 36.8281 53 35.5 53C34.0938 53 33 54.1719 33 55.5Z" fill="#4F46E5"/>
</svg>
