<svg width="96" height="96" viewBox="0 0 96 96" fill="none" xmlns="http://www.w3.org/2000/svg">
<rect x="0.5" y="0.5" width="95" height="95" rx="7.5" fill="white"/>
<rect x="0.5" y="0.5" width="95" height="95" rx="7.5" stroke="#F1F5F9"/>
<path d="M23 12C23 10.8954 23.8954 10 25 10H31C32.1046 10 33 10.8954 33 12V48H23V12Z" fill="#4F46E5"/>
<path d="M10 29C10 27.8954 10.8954 27 12 27H18C19.1046 27 20 27.8954 20 29V48H10V29Z" fill="#4338CA"/>
<path d="M36 48H46V84C46 85.1046 45.1046 86 44 86H38C36.8954 86 36 85.1046 36 84V48Z" fill="#6366F1"/>
<path d="M62 22C62 20.8954 62.8954 20 64 20H70C71.1046 20 72 20.8954 72 22V48H62V22Z" fill="#818CF8"/>
<path d="M75 48H85V75C85 76.1046 84.1046 77 83 77H77C75.8954 77 75 76.1046 75 75V48Z" fill="#A5B4FC"/>
<path d="M49 48H59V57C59 58.1046 58.1046 59 57 59H51C49.8954 59 49 58.1046 49 57V48Z" fill="#C7D2FE"/>
</svg>
