<svg width="96" height="96" viewBox="0 0 96 96" fill="none" xmlns="http://www.w3.org/2000/svg">
<rect x="0.5" y="0.5" width="95" height="95" rx="7.5" fill="white"/>
<rect x="0.5" y="0.5" width="95" height="95" rx="7.5" stroke="#F1F5F9"/>
<path d="M60.5 33V35.5H63C63.625 35.5 64.25 36.125 64.25 36.75C64.25 37.4531 63.625 38 63 38H60.5V40.5C60.5 41.2031 59.875 41.75 59.25 41.75C58.5469 41.75 58 41.2031 58 40.5V38H55.5C54.7969 38 54.25 37.4531 54.25 36.75C54.25 36.125 54.7969 35.5 55.5 35.5H58V33C58 32.375 58.5469 31.75 59.25 31.75C59.875 31.75 60.5 32.375 60.5 33ZM33 35.5H40.5C41.125 35.5 41.75 36.125 41.75 36.75C41.75 37.4531 41.125 38 40.5 38H33C32.2969 38 31.75 37.4531 31.75 36.75C31.75 36.125 32.2969 35.5 33 35.5ZM34.4844 55.2656L36.75 57.5312L38.9375 55.2656C39.4062 54.7969 40.2656 54.7969 40.7344 55.2656C41.2031 55.7344 41.2031 56.5938 40.7344 57.0625L38.4688 59.25L40.7344 61.5156C41.2031 61.9844 41.2031 62.8438 40.7344 63.3125C40.2656 63.7812 39.4062 63.7812 38.9375 63.3125L36.75 61.0469L34.4844 63.3125C34.0156 63.7812 33.1562 63.7812 32.6875 63.3125C32.2188 62.8438 32.2188 61.9844 32.6875 61.5156L34.9531 59.25L32.6875 57.0625C32.2188 56.5938 32.2188 55.7344 32.6875 55.2656C33.1562 54.7969 34.0156 54.7969 34.4844 55.2656ZM50.5 54.25C50.5 52.2188 52.1406 50.5 54.25 50.5H64.25C66.2812 50.5 68 52.2188 68 54.25V64.25C68 66.3594 66.2812 68 64.25 68H54.25C52.1406 68 50.5 66.3594 50.5 64.25V54.25ZM54.25 56.75C54.25 57.4531 54.7969 58 55.5 58H63C63.625 58 64.25 57.4531 64.25 56.75C64.25 56.125 63.625 55.5 63 55.5H55.5C54.7969 55.5 54.25 56.125 54.25 56.75ZM54.25 61.75C54.25 62.4531 54.7969 63 55.5 63H63C63.625 63 64.25 62.4531 64.25 61.75C64.25 61.125 63.625 60.5 63 60.5H55.5C54.7969 60.5 54.25 61.125 54.25 61.75Z" fill="#4F46E5"/>
<path d="M31.75 28H41.75C43.7812 28 45.5 29.7188 45.5 31.75V41.75C45.5 43.8594 43.7812 45.5 41.75 45.5H31.75C29.6406 45.5 28 43.8594 28 41.75V31.75C28 29.7188 29.6406 28 31.75 28ZM54.25 28H64.25C66.2812 28 68 29.7188 68 31.75V41.75C68 43.8594 66.2812 45.5 64.25 45.5H54.25C52.1406 45.5 50.5 43.8594 50.5 41.75V31.75C50.5 29.7188 52.1406 28 54.25 28ZM28 54.25C28 52.2188 29.6406 50.5 31.75 50.5H41.75C43.7812 50.5 45.5 52.2188 45.5 54.25V64.25C45.5 66.3594 43.7812 68 41.75 68H31.75C29.6406 68 28 66.3594 28 64.25V54.25ZM60.5 33C60.5 32.375 59.875 31.75 59.25 31.75C58.5469 31.75 58 32.375 58 33V35.5H55.5C54.7969 35.5 54.25 36.125 54.25 36.75C54.25 37.4531 54.7969 38 55.5 38H58V40.5C58 41.2031 58.5469 41.75 59.25 41.75C59.875 41.75 60.5 41.2031 60.5 40.5V38H63C63.625 38 64.25 37.4531 64.25 36.75C64.25 36.125 63.625 35.5 63 35.5H60.5V33ZM33 35.5C32.2969 35.5 31.75 36.125 31.75 36.75C31.75 37.4531 32.2969 38 33 38H40.5C41.125 38 41.75 37.4531 41.75 36.75C41.75 36.125 41.125 35.5 40.5 35.5H33ZM34.4844 55.2656C34.0156 54.7969 33.1562 54.7969 32.6875 55.2656C32.2188 55.7344 32.2188 56.5938 32.6875 57.0625L34.9531 59.25L32.6875 61.5156C32.2188 61.9844 32.2188 62.8438 32.6875 63.3125C33.1562 63.7812 34.0156 63.7812 34.4844 63.3125L36.75 61.0469L38.9375 63.3125C39.4062 63.7812 40.2656 63.7812 40.7344 63.3125C41.2031 62.8438 41.2031 61.9844 40.7344 61.5156L38.4688 59.25L40.7344 57.0625C41.2031 56.5938 41.2031 55.7344 40.7344 55.2656C40.2656 54.7969 39.4062 54.7969 38.9375 55.2656L36.75 57.5312L34.4844 55.2656Z" fill="#C7D2FE"/>
</svg>
