<svg width="96" height="96" viewBox="0 0 96 96" fill="none" xmlns="http://www.w3.org/2000/svg">
<rect x="0.5" y="0.5" width="95" height="95" rx="7.5" fill="white"/>
<rect x="0.5" y="0.5" width="95" height="95" rx="7.5" stroke="#F1F5F9"/>
<path d="M68 58C68 59.4063 66.8281 60.5 65.5 60.5H40.5V65.5C40.5 66.5156 39.875 67.4531 38.9375 67.8438C38 68.2344 36.9062 68 36.2031 67.2969L28.7031 59.7969C28.2344 59.3281 27.9219 58.7031 27.9219 58C27.9219 57.375 28.2344 56.75 28.7031 56.2813L36.2031 48.7813C36.9062 48.0781 38 47.8438 38.9375 48.2344C39.875 48.625 40.5 49.5625 40.5 50.5V55.5H65.5C66.8281 55.5 68 56.6719 68 58Z" fill="#4F46E5"/>
<path d="M28 38C28 36.6719 29.0938 35.5 30.5 35.5H55.5V30.5C55.5 29.5625 56.0469 28.625 56.9844 28.2344C57.9219 27.8438 59.0156 28.0781 59.7188 28.7813L67.2188 36.2813C67.6875 36.75 68 37.375 68 38C68 38.7031 67.6875 39.3281 67.2188 39.7969L59.7188 47.2969C59.0156 48 57.9219 48.2344 56.9844 47.8438C56.0469 47.4531 55.5 46.5156 55.5 45.5V40.5H30.5C29.0938 40.5 28 39.4063 28 38Z" fill="#C7D2FE"/>
</svg>
