<svg width="96" height="96" viewBox="0 0 96 96" fill="none" xmlns="http://www.w3.org/2000/svg">
<g clip-path="url(#clip0_2684_15082)">
<rect width="96" height="96" rx="8" fill="white"/>
<path d="M48 90V94H47V90H48ZM48 82V86H47V82H48ZM48 74V78H47V74H48ZM48 66V70H47V66H48ZM48 58V62H47V58H48ZM48 50V54H47V50H48ZM48 42V46H47V42H48ZM48 34V38H47V34H48ZM48 26V30H47V26H48ZM48 18V22H47V18H48ZM48 10V14H47V10H48ZM48 2V6H47V2H48Z" stroke="url(#paint0_linear_2684_15082)" stroke-dasharray="4 4"/>
<path d="M85 39L132.685 -13.0054L162 2.00005L162 83.5L132.685 72.9946L82.5 72.9946L67.4998 56.5L47.3309 45.708L67.4997 39L85 39Z" fill="#E0E7FF"/>
<path d="M161.532 35.384L162.416 35.8516L163.351 34.0836L162.467 33.6161L161.532 35.384ZM132.684 18.9948L133.152 18.1108C132.791 17.9198 132.35 17.9677 132.038 18.2317L132.684 18.9948ZM75 49L75.4472 48.1056C75.344 48.054 75.2327 48.0207 75.1181 48.007L75 49ZM89 56L88.5528 56.8945C88.9107 57.0734 89.3409 57.0217 89.6463 56.7631L89 56ZM50.6711 47.1126L51.6641 47.2307L51.9004 45.2448L50.9074 45.1266L50.6711 47.1126ZM57.8247 45.9496L56.8317 45.8314L56.5955 47.8174L57.5885 47.9356L57.8247 45.9496ZM64.5058 48.7586L65.4988 48.8767L65.7351 46.8907L64.7421 46.7726L64.5058 48.7586ZM71.6594 47.5955L70.6664 47.4774L70.4302 49.4634L71.4232 49.5815L71.6594 47.5955ZM78.0528 51.6445L78.9472 52.0917L79.8416 50.3028L78.9472 49.8556L78.0528 51.6445ZM85.9472 53.3556L85.0528 52.9084L84.1583 54.6972L85.0528 55.1445L85.9472 53.3556ZM92.3766 54.4502L93.1396 53.8039L91.8469 52.2778L91.0839 52.9242L92.3766 54.4502ZM96.5444 48.2985L95.7814 48.9449L97.0741 50.4709L97.8371 49.8246L96.5444 48.2985ZM103.298 45.1989L104.061 44.5525L102.768 43.0265L102.005 43.6728L103.298 45.1989ZM107.465 39.0472L106.702 39.6936L107.995 41.2196L108.758 40.5732L107.465 39.0472ZM114.219 35.9476L114.982 35.3012L113.689 33.7752L112.926 34.4215L114.219 35.9476ZM118.387 29.7959L117.624 30.4422L118.916 31.9683L119.679 31.3219L118.387 29.7959ZM125.14 26.6963L125.903 26.0499L124.61 24.5238L123.847 25.1702L125.14 26.6963ZM129.308 20.5446L128.545 21.1909L129.837 22.717L130.6 22.0706L129.308 20.5446ZM135.881 21.8169L136.765 22.2844L137.7 20.5165L136.816 20.0489L135.881 21.8169ZM144.145 23.9253L143.261 23.4577L142.326 25.2257L143.21 25.6932L144.145 23.9253ZM150.539 29.5695L151.423 30.0371L152.358 28.2691L151.474 27.8016L150.539 29.5695ZM158.803 31.6779L157.919 31.2104L156.984 32.9783L157.868 33.4459L158.803 31.6779ZM47.2124 46.7011L50.6711 47.1126L50.9074 45.1266L47.4487 44.7151L47.2124 46.7011ZM57.5885 47.9356L64.5058 48.7586L64.7421 46.7726L57.8247 45.9496L57.5885 47.9356ZM71.4232 49.5815L74.8818 49.993L75.1181 48.007L71.6594 47.5955L71.4232 49.5815ZM74.5528 49.8945L78.0528 51.6445L78.9472 49.8556L75.4472 48.1056L74.5528 49.8945ZM85.0528 55.1445L88.5528 56.8945L89.4472 55.1056L85.9472 53.3556L85.0528 55.1445ZM89.6463 56.7631L92.3766 54.4502L91.0839 52.9242L88.3536 55.237L89.6463 56.7631ZM97.8371 49.8246L103.298 45.1989L102.005 43.6728L96.5444 48.2985L97.8371 49.8246ZM108.758 40.5732L114.219 35.9476L112.926 34.4215L107.465 39.0472L108.758 40.5732ZM119.679 31.3219L125.14 26.6963L123.847 25.1702L118.387 29.7959L119.679 31.3219ZM130.6 22.0706L133.331 19.7578L132.038 18.2317L129.308 20.5446L130.6 22.0706ZM132.217 19.8787L135.881 21.8169L136.816 20.0489L133.152 18.1108L132.217 19.8787ZM143.21 25.6932L150.539 29.5695L151.474 27.8016L144.145 23.9253L143.21 25.6932ZM157.868 33.4459L161.532 35.384L162.467 33.6161L158.803 31.6779L157.868 33.4459Z" fill="#4F46E5"/>
<path opacity="0.08" fill-rule="evenodd" clip-rule="evenodd" d="M31.0001 36.5L18.9211 42.9128L6.50013 27.0735L-11.9999 38.5L-28.566 25.336L-36.8725 27.0735L-50.0097 16.0681L-59 21.8609V84V85.5V87V90.5V92.5V96L47.5 95.6236V45.5L31.0001 36.5Z" fill="url(#paint1_linear_2684_15082)"/>
<path d="M48.086 45.3803L30.7066 36.5641L19.0909 42.6819L6.50005 26.879L-17.3426 42.6819L-29.5361 25.1455L-37.8504 26.879L-51 15.8989" stroke="#4F46E5" stroke-width="2" stroke-linejoin="round"/>
<g filter="url(#filter0_dd_2684_15082)">
<circle cx="47.875" cy="47.875" r="11.875" fill="white"/>
</g>
<circle cx="47.875" cy="47.875" r="4.375" fill="#4F46E5"/>
</g>
<rect x="0.5" y="0.5" width="95" height="95" rx="7.5" stroke="#F1F5F9"/>
<defs>
<filter id="filter0_dd_2684_15082" x="24" y="30" width="47.75" height="47.75" filterUnits="userSpaceOnUse" color-interpolation-filters="sRGB">
<feFlood flood-opacity="0" result="BackgroundImageFix"/>
<feColorMatrix in="SourceAlpha" type="matrix" values="0 0 0 0 0 0 0 0 0 0 0 0 0 0 0 0 0 0 127 0" result="hardAlpha"/>
<feOffset dy="6"/>
<feGaussianBlur stdDeviation="6"/>
<feColorMatrix type="matrix" values="0 0 0 0 0 0 0 0 0 0 0 0 0 0 0 0 0 0 0.1 0"/>
<feBlend mode="normal" in2="BackgroundImageFix" result="effect1_dropShadow_2684_15082"/>
<feColorMatrix in="SourceAlpha" type="matrix" values="0 0 0 0 0 0 0 0 0 0 0 0 0 0 0 0 0 0 127 0" result="hardAlpha"/>
<feOffset dy="0.5"/>
<feGaussianBlur stdDeviation="2"/>
<feColorMatrix type="matrix" values="0 0 0 0 0 0 0 0 0 0 0 0 0 0 0 0 0 0 0.1 0"/>
<feBlend mode="normal" in2="effect1_dropShadow_2684_15082" result="effect2_dropShadow_2684_15082"/>
<feBlend mode="normal" in="SourceGraphic" in2="effect2_dropShadow_2684_15082" result="shape"/>
</filter>
<linearGradient id="paint0_linear_2684_15082" x1="47.5" y1="0" x2="47.5" y2="96" gradientUnits="userSpaceOnUse">
<stop stop-color="#D1D5DB" stop-opacity="0"/>
<stop offset="0.125" stop-color="#D1D5DB" stop-opacity="0.883929"/>
<stop offset="0.510417" stop-color="#D1D5DB"/>
<stop offset="0.880208" stop-color="#D1D5DB"/>
<stop offset="1" stop-color="#D1D5DB" stop-opacity="0"/>
</linearGradient>
<linearGradient id="paint1_linear_2684_15082" x1="8.3245" y1="23.5212" x2="8.3245" y2="104.083" gradientUnits="userSpaceOnUse">
<stop stop-color="#4F46E5"/>
<stop offset="0.505208" stop-color="#F1F5F9"/>
<stop offset="1" stop-color="#F1F5F9"/>
<stop offset="1" stop-color="#F1F5F9"/>
</linearGradient>
<clipPath id="clip0_2684_15082">
<rect width="96" height="96" rx="8" fill="white"/>
</clipPath>
</defs>
</svg>
