<svg width="96" height="96" viewBox="0 0 96 96" fill="none" xmlns="http://www.w3.org/2000/svg">
<rect x="0.5" y="0.5" width="95" height="95" rx="7.5" fill="white"/>
<rect x="0.5" y="0.5" width="95" height="95" rx="7.5" stroke="#F1F5F9"/>
<rect x="10" y="10" width="33" height="4" rx="1" fill="#4338CA"/>
<rect x="10" y="20" width="21" height="3" rx="1" fill="#818CF8"/>
<rect x="53" y="20" width="21" height="3" rx="1" fill="#C7D2FE"/>
<rect x="10" y="38" width="19" height="3" rx="1" fill="#818CF8"/>
<rect x="10" y="74" width="19" height="3" rx="1" fill="#818CF8"/>
<rect x="53" y="38" width="19" height="3" rx="1" fill="#C7D2FE"/>
<rect x="10" y="47" width="26" height="3" rx="1" fill="#818CF8"/>
<rect x="53" y="47" width="26" height="3" rx="1" fill="#C7D2FE"/>
<rect x="10" y="56" width="23" height="3" rx="1" fill="#818CF8"/>
<rect x="53" y="56" width="23" height="3" rx="1" fill="#C7D2FE"/>
<rect x="10" y="65" width="14" height="3" rx="1" fill="#818CF8"/>
<rect x="53" y="65" width="14" height="3" rx="1" fill="#C7D2FE"/>
<rect x="10" y="83" width="22" height="3" rx="1" fill="#818CF8"/>
<rect x="53" y="83" width="22" height="3" rx="1" fill="#C7D2FE"/>
<rect x="53" y="74" width="22" height="3" rx="1" fill="#C7D2FE"/>
<rect x="10" y="29" width="24" height="3" rx="1" fill="#818CF8"/>
<rect x="53" y="29" width="24" height="3" rx="1" fill="#C7D2FE"/>
<rect x="53" y="10" width="33" height="4" rx="1" fill="#818CF8"/>
</svg>
