<svg width="96" height="96" viewBox="0 0 96 96" fill="none" xmlns="http://www.w3.org/2000/svg">
<rect x="0.5" y="0.5" width="95" height="95" rx="7.5" fill="white"/>
<rect x="0.5" y="0.5" width="95" height="95" rx="7.5" stroke="#F1F5F9"/>
<path d="M33 60.5C33 57.2188 35.1094 54.4062 38.0781 53.3906C38 52.9219 38 52.375 38 51.75C38 46.9844 41.9062 43 46.75 43C50.1094 43 53 44.9531 54.4844 47.6875C55.5781 46.3594 57.2969 45.5 59.25 45.5C62.6875 45.5 65.5 48.3125 65.5 51.75C65.5 52.2188 65.4219 52.6094 65.3438 53C65.3438 53 65.4219 53 65.5 53C69.6406 53 73 56.3594 73 60.5C73 64.6406 69.6406 68 65.5 68H40.5C36.3594 68 33 64.6406 33 60.5Z" fill="#4F46E5"/>
<path d="M46.75 40.5C40.8906 40.5 36.125 44.875 35.5 50.5H30.5C26.3594 50.5 23 47.1406 23 43C23 38.8594 26.3594 35.5 30.5 35.5H30.5781C31.125 31.2812 34.7969 28 39.25 28C42.9219 28 46.125 30.4219 47.375 33.7031C48.3125 33.2344 49.4062 33 50.5 33C54.6406 33 58 36.3594 58 40.5C58 41.5156 57.7656 42.375 57.4531 43.2344C56.5938 43.3906 55.7344 43.7031 54.9531 44.1719C52.9219 41.9062 49.9531 40.5 46.75 40.5Z" fill="#C7D2FE"/>
</svg>
